<?xml version="1.0" encoding="UTF-8"?>
<svg id="Calque_1" data-name="Calque 1" xmlns="http://www.w3.org/2000/svg" viewBox="0 0 129.43 125.05">
  <path d="M14.04,85.35c.96-.07,1.79.65,2.63.99,2.4.98,4.78,1.21,7.32.5,1.19-.33,2.85-1.54,3.92-1.51,2.83.09,7.7,3.01,9.55,4.98,2.73,2.91,4.95,8.83,4.31,12.68-.15.92-1.09,1.27-1.9,1.6-10.8,4.27-27.35,4.4-38.08-.13-1.24-.52-1.76-.99-1.78-2.37-.05-4.43,2.07-9.89,5.65-12.87,1.77-1.48,6.03-3.69,8.39-3.86ZM37.59,101.24c-.35-4.33-2.35-8.48-6.45-10.76-.75-.42-3.26-1.54-4.04-1.49-.49.03-2.11.74-2.9.91-2.55.53-4.85.43-7.36-.23-.57-.15-1.43-.65-1.96-.64-.95.01-3.39,1.1-4.25,1.59-4.03,2.28-5.93,6.3-6.31,10.57,9.34,3.22,19.79,3.69,29.41,1.2,1.3-.34,2.58-.76,3.86-1.14Z"/>
  <path d="M101.47,85.35c1.16-.11,1.89.63,2.86,1.03,2.67,1.1,5.41,1.19,8.12.13,2.15-.84,1.94-1.54,4.61-.83,5.03,1.34,9.18,4.89,11,9.45.81,2.02,1.65,5.76,1.28,7.86-.22,1.25-2.8,1.91-3.96,2.28-10.82,3.45-22.3,3.4-33.18.16-1.86-.55-4.56-1.05-4.61-3.22-.1-4.09,1.82-9.3,4.86-12.29,1.91-1.87,6.26-4.29,9.02-4.56ZM125.01,101.23c.01-4.41-2.31-8.53-6.39-10.78-.79-.44-3-1.46-3.84-1.46-.37,0-2.23.75-2.88.89-2.6.57-4.91.46-7.47-.21-1.76-.46-1.42-.9-3.38-.29-5.69,1.77-8.66,6.26-9.17,11.69l.1.21c10.63,3.45,22.46,3.76,33.03-.04Z"/>
  <path d="M56.78,22.68c1.64-.21,2.19.63,3.56,1.15,2.49.96,5,.99,7.51.08.75-.27,1.87-1.08,2.46-1.21,1.85-.41,5.74,1.43,7.29,2.43,4.68,3,7.17,8.01,7.47,13.25.12,2.03.04,2.65-2.01,3.43-11.21,4.27-24.28,4.3-35.68.68-1.33-.42-3.81-.94-4.06-2.44-.57-3.41,1.45-8.98,3.69-11.7,1.99-2.41,6.51-5.26,9.77-5.67ZM57.75,26.31c-.85.11-3.11,1.11-3.91,1.55-4.06,2.27-5.77,6.2-6.33,10.43l.11.23c10.01,3.37,21.01,3.69,31.16.62.71-.22,2.02-.37,1.99-1.13-.12-3.33-2.31-7.44-5.17-9.45-.95-.67-3.96-2.22-5.07-2.29-.61-.04-1.09.36-1.66.53-3.44,1-5.9.99-9.34,0-.67-.19-1.01-.59-1.77-.49Z"/>
  <path d="M98.11,108.8c.67.62.86,1.64.57,2.45-.39,1.09-3.74,3.61-4.86,4.42-16.95,12.31-40.85,12.59-57.89.26-1.03-.75-4.75-3.61-5.14-4.55-.72-1.76.78-3.5,2.79-3.12,1.02.2,2.09,1.6,2.88,2.24,9.48,7.67,21.12,11.2,33.75,9.76,9.6-1.1,18.33-5.61,25.14-11.84.81-.39,2.1-.23,2.75.37Z"/>
  <path d="M20.3,62.7c7.23-.47,12.6,5.76,12.14,12.2-.61,8.56-10.96,13.57-18.44,8.09-8.37-6.13-4.63-19.58,6.3-20.29ZM19.74,66.45c-8.04,1.02-8.35,13.7-.25,15.06,11.45,1.92,11.92-16.53.25-15.06Z"/>
  <path d="M107.74,62.7c7.15-.52,12.74,5.65,12.28,12.07-.72,9.91-13.76,14.39-20.46,6.34-5.71-6.86-1.41-17.72,8.18-18.41ZM103.22,68.53c-3.44,3.4-2.73,9.77,1.67,12.15,7.75,4.19,14.72-5.78,9-12-2.77-3.02-7.76-3.03-10.67-.15Z"/>
  <path d="M63.33.03c10.56-.71,15.96,11.46,9.49,18.67-4.71,5.24-13.26,5.09-17.65-.41C49.72,11.48,53.8.67,63.33.03ZM62.9,3.78c-8.88,1.12-8.09,16.07,2.17,15.1,9.25-.87,8.58-16.45-2.17-15.1Z"/>
  <path d="M87.95,27.49c1.07,0,3.19,1.45,4.13,2.05,9.26,5.89,15.85,14.7,18.71,24.81.28.98.88,2.91.87,3.85-.02,2.18-3.1,2.86-4.29,1.02-2.1-10.83-8.31-19.98-17.94-26.31-.8-.53-2.95-1.53-3.36-2.18-.88-1.39.13-3.23,1.88-3.24Z"/>
  <path d="M39.79,28.12c1.96-.37,3.41,1.71,2.38,3.25-.44.67-2.41,1.58-3.17,2.1-9.11,6.3-15.06,15.28-17.02,25.74-1.06,1.78-4.17,1.18-4.31-.76-.07-.98.6-3.19.88-4.23,2.59-9.36,8.93-17.97,17.24-23.72.72-.5,3.29-2.25,3.99-2.38Z"/>
</svg>