<?xml version="1.0" encoding="UTF-8"?>
<svg id="Calque_1" data-name="Calque 1" xmlns="http://www.w3.org/2000/svg" viewBox="0 0 128.13 133.96">
  <path d="M108.43,68.89v-4.46c0-.24.56-1.45.75-1.67,1.04-1.17,2.99-1.05,4,.09.13.14.54.84.54.97v4.84l.23.23h6.81c2.81,0,6.9,4.26,7.12,7.1.51,16.43.07,32.95.23,49.42-.46,4.75-3.75,8.18-8.56,8.54h-47.67c-4.46-.27-7.89-3.24-8.68-7.66-.22-16.72-.39-33.56.08-50.27.64-3.02,3.02-5.78,5.96-6.75,2.72-.89,5.1-.09,7.64-.37.22-.02.39-.02.52-.24v-4.69c0-.4.72-1.26,1.07-1.5,1.25-.86,2.9-.67,3.75.62.09.13.48.97.48,1.03v4.54l25.72.23ZM77.41,74.03h-6.13c-1.03,0-2.95,2.03-2.95,3.1v7.94h54.4l.23-.23v-6.51c0-.17-.17-1.21-.22-1.45-.17-.76-.82-1.73-1.46-2.17-.18-.13-1.31-.69-1.43-.69h-5.98c-.2,1.59.36,4.08-.54,5.44-.96,1.44-3.06,1.65-4.22.3-.22-.25-.69-1.31-.69-1.58v-4.16h-25.72v4.61c0,.06-.46.86-.54.97-1.11,1.47-3.36,1.37-4.33-.19-.07-.12-.42-.89-.42-.94v-4.46ZM122.8,90.22h-54.47v35.33c0,.06.36.96.42,1.09.59,1.14,1.73,1.82,2.98,2.01,16.17-.13,32.4.26,48.53-.19,1.83-.65,2.56-2.09,2.7-3.96-.44-10.77.56-21.98,0-32.7-.03-.54-.2-1.04-.16-1.58Z"/>
  <path d="M49.99.09c30.89-1.76,56.82,23.28,57.09,54.05.02,2.11-1.32,3.55-3.5,3.04-2.34-.55-1.68-3.31-1.81-5-1.57-21.93-16.6-41.21-38.43-45.85C35.01.3,8.81,20.83,5.56,49.01c-3.15,27.27,16.79,53.22,44.54,55.13,1.13.08,2.37-.11,3.48,0,3.73.37,3.55,5.45-.45,5.46-27.58.02-50.34-22.59-52.88-49.57C-2.57,30.2,19.51,1.82,49.99.09Z"/>
  <path d="M56.1,49.5c4.06,1.97,4.13,7.79.33,10.13-1.64,1.01-3.04.82-4.89.7l-10.37,10.67c-2.83,2.02-5.74-1.81-3.26-4.16l10.06-10.2c-.83-3.07.17-5.79,2.93-7.37l.02-21.62c.87-3.46,5.27-2.59,5.15.91l.02,20.94Z"/>
  <path d="M84.92,22.79c1.06,1.13.81,2.54-.1,3.66-.54.67-3.83,4.03-4.4,4.37-2.15,1.28-4.68-.98-3.65-3.35.28-.65,4.35-4.76,5.01-5.12,1.07-.58,2.29-.46,3.13.44Z"/>
  <path d="M23.35,22.02c.71-.11,1.41.1,2,.5.64.44,4.18,4,4.59,4.64,1.43,2.24-.94,4.85-3.26,3.72-.68-.33-4.52-4.17-4.95-4.89-.94-1.58-.19-3.69,1.63-3.98Z"/>
  <path d="M27.44,78.31c2.07-.28,3.54,1.97,2.59,3.8-.34.65-4.44,4.77-5.07,5.06-2.35,1.08-4.66-1.32-3.33-3.63.34-.59,4.57-4.79,5.11-5.03.21-.09.48-.17.71-.2Z"/>
  <path d="M55.26,99.55c-1.38,1.31-3.97.68-4.3-1.27-.19-1.12-.19-5.62,0-6.74.46-2.71,4.62-2.85,5.07.31.18,1.26.18,5.86-.25,6.93-.08.19-.37.63-.52.77Z"/>
  <path d="M11.4,52.13c1.23-.19,4.75-.18,6.01-.04,3.15.35,3.34,4.72.29,5.13-1.27.17-4.89.16-6.19.01-3.15-.35-3.05-4.65-.11-5.11Z"/>
  <path d="M89.33,52.13c1.3-.19,4.37-.16,5.72-.05,3.54.31,3.53,4.82.3,5.15-1.47.15-4.43.14-5.91,0-3.09-.27-3.27-4.64-.11-5.11Z"/>
  <path d="M52.7,9.46c2.25-.41,3.21.82,3.37,2.92.09,1.16.11,3.72,0,4.84-.38,3.81-4.82,3.44-5.14.46-.14-1.28-.17-5.11.04-6.32.13-.78.95-1.75,1.74-1.89Z"/>
  <path d="M89.87,112.56c.32.33,1.33,1.51,1.61,1.65.12.06.19.1.3,0l14.3-15.67c2.38-1.75,5.69,1.15,3.25,4.16-4.68,5.78-10.5,11.06-15.2,16.88-1.17,1.36-2.97,1.68-4.39.45-2.12-2.93-6.22-5.72-8.16-8.64-1.71-2.58,1.06-5.36,3.59-3.75,1.17.75,3.56,3.74,4.7,4.91Z"/>
</svg>