<?xml version="1.0" encoding="UTF-8"?>
<svg id="Calque_1" data-name="Calque 1" xmlns="http://www.w3.org/2000/svg" viewBox="0 0 128.46 128.61">
  <path d="M21.96,17.04l-1.51,15.07,15.29-2.73c-.67-.81-2.35-1.38-2.66-2.43-.22-.75-.06-1.7.45-2.29,2.64-3.05,8.28-6.82,11.92-8.61,26.95-13.21,58.73,4.92,61.63,34.5,2.78,28.46-23.23,51.83-51.24,46.22-19.14-3.83-34.09-21.31-34.59-40.9-.04-1.53.34-3.25,2.23-3.25,2.73,0,2.09,3,2.22,4.68,2.62,34.16,45.46,48.75,67.97,22.32s.16-67.97-34.72-63.28c-7.55,1.01-14.63,4.6-20.33,9.53,0,.33,2.54,1.93,3,2.31.83.67,1.62,1.14,1.71,2.33.06.77-.54,1.79-1.26,2.11l-23.92,4.36c-.95.09-1.92-.39-2.28-1.27-.57-1.37.2-4.37.36-5.96.53-5.21.97-10.44,1.58-15.64.1-.81.22-2.6.5-3.23.49-1.09,1.78-1.6,2.9-1.18.71.27,3.59,3.67,4.28,4.48.29.34.53.72.78,1.08l.21.06C34.37,7.76,44.53,2.52,55.38.73c30.13-4.97,58.78,16.16,63.01,46.27,5.43,38.54-30.87,70.61-68.47,60.29-17.27-4.74-32.15-18.76-37.68-35.81-1.44-4.43-3.26-12.63-2.61-17.17.34-2.38,3.86-2.69,4.66-.38.05,17.42,9.07,33.66,23.76,42.84,35.43,22.13,81.01-7.39,75.61-48.48C108.43,8.41,60.89-9.06,30.71,17.98c-.83.74-2.22,2.55-3.16,2.87-2.66.93-3.82-2.56-5.6-3.8Z"/>
  <path d="M54.08,33.3c.91-.12,1.77-.02,2.62.32l28.41,17.38c2.43,1.91,2.51,5.64.29,7.73l-27.88,17.33c-3.41,2.05-7.37,0-7.71-3.97v-33.45c.09-2.64,1.5-4.97,4.28-5.35ZM54.69,38.36v33.3l.34.2,26.93-17-26.93-16.71-.34.2Z"/>
  <path d="M45.57,118.52h80.67s.8.31.92.37c1.68.88,1.74,3.46.12,4.39-.16.09-.93.4-1.04.4H45.57l-.22-.22v-4.74l.22-.22Z"/>
  <path d="M34.88,118.52v5.17H2.22c-.08,0-.81-.28-.94-.35-1.64-.87-1.71-3.36-.18-4.36.12-.08.92-.45.98-.45h32.8Z"/>
  <path d="M39.58,113.68c2-.29,3.02.87,3.19,2.76.2,2.21.26,7.58-.03,9.72-.46,3.33-4.81,3.12-5.13.18-.36-3.35.26-7.34.01-10.75.24-1.04.89-1.76,1.96-1.91Z"/>
</svg>