<?xml version="1.0" encoding="UTF-8"?>
<svg id="Calque_1" data-name="Calque 1" xmlns="http://www.w3.org/2000/svg" viewBox="0 0 132.73 120.63">
  <path d="M110.56,41.13h5.48c2.54,0,6.02,3.62,6.02,6.15v3.04h4.8c2.82,0,5.76,2.77,5.88,5.61-.45,4.63-1.8,9.33-2.88,13.88-3.64,15.32-7.51,30.62-11.29,45.9-1.29,3.01-3.85,4.69-7.12,4.92H20.86c-3.2-.32-5.63-2.03-6.66-5.11L.1,49.05c-.75-3.17,2.83-7.91,6.02-7.91h3.38l.2-.2v-5.81c0-2.15,2.3-4.62,4.23-5.36.39-.15,1.76-.4,1.83-.6l.02-22.15c.21-3.31,1.54-5.8,4.86-6.77,16.75-.45,33.58-.07,50.37-.19,3.31.28,5.59,2.76,5.89,6.01l.02,12.96c.15.52,3.04,2.74,3.62,3.54.38.52.31.92.61,1.42l12.8-19.37c.48-.7,1.21-1.04,2.07-.89,8.74,5.8,17.54,11.65,26.11,17.7.54.77.39,1.46-.1,2.21l-11.47,17.53ZM73.52,15.58V6.32s-.17-.78-.2-.88c-.45-1.41-1.74-1.92-3.11-2.03H22.75c-2.03.15-3.21.92-3.45,3.04v69.1c.04,1.26,1.03,2.58,2.3,2.77l1.22-5.74.1-63.58c.6-.92,1.64-1.35,2.59-.63.18.14.68.78.68.94v47.25l1.11-2.48,2.41-2.6V13.48c.27-3.07,2.5-5.63,5.61-6.02h29.47c.27.06.54.31.75.48,2.08,1.66,4.19,4.16,6.15,6.02.58.55,1.24,1.06,1.83,1.62ZM95.91,7.48l-1.82,2.88,2.48,1.82,1.95-3-2.61-1.7ZM77.58,25.45h-9.26c-1.41,0-3.31-1.09-4.24-2.12-2.39-2.66-1.45-7.13-1.5-10.39,0-.58-.32-1.2-.06-1.81l-.15-.28h-26.63c-.92,0-2.64,1.58-2.64,2.5v36.98h44.62l-.14-24.88ZM101.24,10.96l-5.45,8.05,12.27,8.3,5.45-8.05-12.27-8.3ZM90.3,16.24l2.48,1.64,1.95-2.89-2.69-1.84c-.11.58-1.96,2.71-1.74,3.09ZM74.87,21.93l-8.92-8.65v6.15c0,.39.52,1.47.81,1.76.17.17,1.26.74,1.42.74h6.69ZM88.26,18.96l-1.75,3.01,2.49,1.69,1.94-2.86-2.68-1.84ZM116.91,25.71l1.74-2.76c-.01-.17-.86-.78-1.06-.93s-1.38-.93-1.52-.88l-1.83,2.88c.3.35,2.41,1.89,2.68,1.7ZM94.06,21.88l-7.08,10.62,12.28,8.18,7.08-10.62-12.28-8.18ZM84.47,24.77l-1.89,2.91,2.63,1.8,1.95-2.88c-.27-.3-2.55-1.92-2.69-1.82ZM113.12,31.52l1.77-2.89-2.62-1.69-1.97,2.9c.46.19,2.51,1.9,2.82,1.68ZM81.09,30.72v4.26l.34.2c.21-.04,1.71-2.5,1.95-2.89l-2.29-1.57ZM109.21,37.34l1.87-2.91-2.6-1.82-1.94,2.91,2.67,1.82ZM15.79,32.75c-1.54.3-2.57,1.63-2.71,3.17-.19,2.19.23,4.72,0,6.9-.25,2.51-3.92,1.51-5.6,1.59-2.18.1-3.88,1.61-4,3.82.94,5.54,2.16,11.06,3.31,16.57,2.85,13.58,5.8,27.15,8.79,40.69l5.21-23.72c-2.94-.77-4.87-3.49-5-6.5v-42.52ZM81.09,41.74v8.59h11.8s4.41-6.81,4.41-6.81l-11.96-8.06-.24.17-4.01,6.12ZM104.7,38.43l-1.94,2.9,2.61,1.8,1.93-2.89c0-.28-2.25-1.52-2.6-1.82ZM101.64,48.97l1.75-3.02-2.61-1.73-1.82,2.9,2.68,1.84ZM118.68,50.33v-2.77c0-1.19-1.7-2.75-2.83-2.98-1.57-.32-4.92-.07-6.69-.06-.22,0-.46-.17-.66-.12l-4.01,5.93h14.2ZM97.45,50.19c-.29-.08-.55-.25-.67.13h.68s0-.13,0-.13ZM33.06,53.87c-1.36.33-2.51,1.16-3.1,2.44-4.3,19.2-8.61,38.47-12.53,57.74.32,1.97,2,3.22,3.97,3.2h89.78c2.2-.17,3.5-1.12,4.28-3.16,4.65-19.23,9.75-38.42,13.9-57.75-.1-1.15-.82-2.04-1.89-2.44l-94.41-.03Z"/>
</svg>