<?xml version="1.0" encoding="UTF-8"?>
<svg id="Calque_1" data-name="Calque 1" xmlns="http://www.w3.org/2000/svg" viewBox="0 0 122.95 137.13">
  <path d="M58.81,0l14.93,13.39c1.07,1.05,2.28,1.99.93,3.48l-15.47,14.12c-.65.37-1.51.32-2.07-.2-.08-.07-.47-.56-.47-.6v-5.02c-23.58,2.57-40.65,25.02-37.21,48.52,2.06,14.07,11.34,26.83,24.26,32.78,1.27.58,2.73.99,3.93,1.56,1.95.93,1.06,3.48-.79,3.21-2.01-.29-6.93-2.93-8.79-4.07-22.06-13.45-29.12-42.47-15.01-64.4,6.97-10.83,18.66-18.89,31.56-20.67,1.07-.15,4.08-.66,4.79.12.06.07.48.81.48.86v2.75l11.24-10.26-11.24-10.23v2.61c0,.12-.34.75-.46.88-.72.78-1.91.45-2.82.53C17.4,13.04-7.88,53.53,8.17,90.21c6.19,14.14,17.66,25.4,31.83,31.51,1.32,1.32.37,3.32-1.55,2.88-1.06-.24-3.48-1.58-4.55-2.14C4.84,107.19-8.53,71.7,5.76,41.42,15.08,21.68,34.64,7.82,56.54,6.1c.64-1.86-.86-5.02,1.2-6.1h1.07Z"/>
  <path d="M60.82,127.54c.09-.63.66-1.38,1.3-1.51,27.87-.35,52.28-22.45,56.78-49.68,4.7-28.43-12.95-56.24-40.27-64.64-1.03-.32-4.49-.97-5.05-1.58-.89-.98-.05-2.78,1.33-2.74,1.58.05,5.47,1.43,7.1,2.01,30.54,10.91,47.87,43.89,38.3,75.32-7.44,24.45-30.44,43.44-56.27,44.49v6.76s-.38.62-.45.69c-.59.59-1.57.61-2.22.1l-17.82-15.65c-.81-.86-.93-1.76-.13-2.69l18.23-15.79c.71-.72,2.4.27,2.4,1.06v6.63c17.22-.91,32.24-13.72,37.63-29.79,7.97-23.77-6.78-48.68-30.6-54.7-1.14-.92-.49-2.88.95-2.94,1.03-.05,4.84,1.32,5.98,1.76,18.93,7.34,31.11,27.28,28.87,47.55s-19.14,38.67-39.84,41.18c-1.12.14-4.22.51-5.15.23-.38-.12-1.06-.99-1.06-1.35v-4.62l-13.78,12,13.78,12.23c.14-1.34-.19-3.06,0-4.35Z"/>
  <path d="M100.28,69.72c-.73.82-3.78.3-4.97.45s-1.91.97-2.45,1.97c-2.17,4.04-2.66,12.79-9.02,11.75-2.74-.45-3.74-2.76-4.4-5.1-1.36-4.78-2.26-9.72-3.56-14.52-.67-1.71-2.36-1.67-3.21-.14-2.15,6.66-3.68,13.71-5.92,20.32-1.3,3.83-3.65,7.72-7.93,8.54-5.86,1.12-9.81-3.14-11.38-8.32-2.91-9.59-4.59-19.89-7.41-29.55-.58-2.16-2.96-4.01-4.49-1.48-1.66,2.73-2.7,8.6-3.94,11.86-.98,2.57-2.94,4.46-5.79,4.66-1.23.09-3.68.26-3.69-1.54-.02-2.27,2.76-1.45,4.02-1.74,1.84-.42,2.42-2.62,2.95-4.15,1.08-3.12,1.82-6.58,3.11-9.61,2.58-6.07,9.27-4.63,11.01,1.11,1.94,7.72,3.77,15.46,5.76,23.17,1.05,4.07,1.98,11.32,6.87,12.41,4.29.96,6.66-2.97,7.83-6.42,2.18-6.45,3.52-13.67,5.85-19.99,1.8-4.88,7.82-4.91,9.45-.06,1.77,5.27,2.3,11.34,4.35,16.54,1.06,1.3,2.5.9,3.27-.48,2.25-4.03,2.47-11.75,8.33-12.43.91-.11,3.65-.14,4.51.02,1.24.22,1.67,1.83.86,2.74Z"/>
</svg>