<?xml version="1.0" encoding="UTF-8"?>
<svg id="Calque_1" data-name="Calque 1" xmlns="http://www.w3.org/2000/svg" viewBox="0 0 83.52 122.67">
  <path d="M4.82,106.15c-2.59-.37-4.74-3.36-4.82-5.89v-51.39c.27-3.12,2.4-5.59,5.58-5.88h21.94c.92-5.4,5.44-9.96,10.71-11.24,8.16-1.99,16.12,3.14,17.92,11.22l22.06.04c2.91.36,5.17,2.75,5.3,5.71v52.16c.04,1.96-2.76,5.28-4.67,5.28h-26.84l1.6,7.65c.19.28,1.93.11,2.43.17,3.02.31,5.59,2.07,6.41,5.06.48,1.74.27,3.38-1.8,3.64l-38.43-.12c-2.76-1.4-.69-5.37,1.03-6.84,1.88-1.62,4.32-1.82,6.72-1.77l1.7-7.78H4.82ZM52.36,45.98c0-5.83-4.73-10.56-10.56-10.56s-10.56,4.73-10.56,10.56,4.73,10.56,10.56,10.56,10.56-4.73,10.56-10.56ZM4.13,48.57v45.35h75.4v-45.04c0-.48-.7-1.54-1.26-1.64l-21.73-.1-.23.23c-.36,5.7-4.41,10.6-9.73,12.45-9.03,3.13-18.67-3.24-19.35-12.7H5.74c-.61-.05-1.5.96-1.6,1.45ZM79.53,98.05H4.13v2.52c0,.46.89,1.43,1.4,1.5h72.59c.59-.07,1.4-1.16,1.4-1.66v-2.37ZM34.11,113.95h15.29l-1.56-7.62c-.3-.18-.63-.17-.96-.19-2.87-.17-7.27-.22-10.11,0-.33.03-.65.07-.95.19l-1.72,7.61ZM27,118.54h30.36l-.61-.38-29.95.03-.64.51c.3.13.67-.14.84-.15Z"/>
  <path d="M66.29,15.25c-.74-.75-1.41-1.59-2.2-2.32-12.64-11.55-31.53-11.73-44.28-.23-1.17,1.06-2.33,2.66-3.43,3.6-1.99,1.71-4.7-.68-3.04-3.04,1.83-2.59,6.14-5.96,8.86-7.66,15.12-9.47,35.36-6.75,47.17,6.64,1.01,1.14,2.4,2.75.76,4.13s-2.8-.07-3.84-1.13Z"/>
  <path d="M25.45,21.78c-1.01.95-1.71,2.57-3.34,2.4-1.34-.14-2.14-1.33-1.87-2.65.24-1.18,4.08-4.56,5.18-5.37,10.89-8.15,26.33-7.03,35.86,2.66.39.39,1.39,1.45,1.67,1.85,1.27,1.85-.18,4.07-2.34,3.41-.82-.25-2.9-2.81-3.78-3.56-9.47-8.18-22.46-7.08-31.37,1.27Z"/>
  <path d="M40.5,19.64c5.71-.44,12.8,2.4,16.15,7.16,1.73,2.46-1.11,4.81-3.13,2.98-.78-.7-1.49-1.78-2.37-2.53-5.64-4.77-14.08-4.45-19.42.61-1.19,1.12-2.17,3.49-4.26,2.27s-.72-3.09.36-4.33c3.09-3.53,7.99-5.79,12.66-6.15Z"/>
  <path d="M50.21,45.99c0,4.64-3.76,8.4-8.4,8.4s-8.4-3.76-8.4-8.4,3.76-8.4,8.4-8.4,8.4,3.76,8.4,8.4ZM41.85,42.89c0-1.64-1.33-2.96-2.96-2.96s-2.96,1.33-2.96,2.96,1.33,2.96,2.96,2.96,2.96-1.33,2.96-2.96Z"/>
</svg>