<?xml version="1.0" encoding="UTF-8"?>
<svg id="Calque_1" data-name="Calque 1" xmlns="http://www.w3.org/2000/svg" viewBox="0 0 105.66 138.22">
  <defs>
    <style>
      .cls-1 {
        fill: #fff;
      }
    </style>
  </defs>
  <path d="M98.05,73.89l.39.2c3.62-1.76,5.2,1.06,5.83,4.23,1.36,6.81.35,14.01.81,20.87.17,2.49.69,4.61.58,7.22-.15,3.51-.71,7.95-1.57,11.36-1.1,4.33-2.33,5.64-2.23,10.52.02.95.47,1.86.05,2.89-.38.95-3.64,3.51-4.62,4.12-6.41,4.01-14.62,4.14-20.44-.99-29.51,7.81-62.76-6.63-76.83-33.58l20.07-10.53c2.13-1.93,4.52-3.38,7.06-4.72.1-1.19-.04-2.4.02-3.59.06-1.4.49-3.74.15-5.08-.13-.52-.92-1.31-1.2-1.85-1.11-2.13-1.83-4.46-2.32-6.8-.1-.48,0-1.44-.23-1.82-.12-.19-1.11-.35-1.52-.62-1.72-1.11-1.89-3.1-2.63-4.78-1.74-3.92-5.12-9.3-2.7-13.66.83-1.5,2.18-1.61,3.58-2.27-.14-.53-.36-1.06-.48-1.58-.92-4.3-1.58-8.62-2.28-12.93-.55-3.39.51-4.03.88-6.81.12-.93-.18-1.69-.15-2.44.09-3.14,1.47-5.97,4.18-7.61,1.04-.63,3.83-1.43,4.35-1.92.37-.35,1.1-2.54,1.5-3.26C32.18,1.3,44.28-1.45,51.63.73c.52.15,3.29,1.37,3.46,1.19l.1-.58c6.25.19,13.64,5.02,14.34,11.61.06.06.38-.25.38-.28v-2.76c2.08,1.51,3.11,3.66,2.87,6.26,3.02.68,5.98,2.7,6.81,5.83.35,1.33.13,2.73.39,4.08l-1.05-.76c-.29-.05-.33,0-.29.28.07.47.52,1.22.67,1.81.93,3.65-.06,9.53-.7,13.37-.29,1.75-.85,3.4-1.12,5.16,4.02.77,4.25,5.82,3.53,9.05-.58,2.61-2.21,4.53-3.52,6.74-1.75,2.95-2.73,6.61-7.21,5.62-.65,2.96-.64,6-.77,9.02-.02.37-.18.73-.2,1.13-.04,1.26-.19,5.92.3,6.75.1.17,2.74,2.13,3.13,2.38.2.13.22.45.48.1.18-1.39.14-2.89.28-4.28.34-3.33.81-7.31,1.38-10.6.71-4.09,2.73-10.11,7.93-6.8.14-2.52,1.21-5.77,4.15-5.97s4.55,1.87,4.59,4.64c.49-.06.75-.43,1.28-.52,1.35-.25,3.2.28,4.01,1.41.62.86,1.17,2.74,1.17,3.77v5.51ZM53.96,15.14c.13.81-.1,1.91,0,2.76l1.13-3.36c-.53-6.99-8.1-10.6-14.43-9.76l2.08-.67c4.85-.89,10.45,0,13.88,3.82,1.93,2.15,3.09,6.11,1.53,8.74l.38.09c3.97-9.91-5.12-15.73-14.13-15-5.57.46-15.07,3.93-15.52,10.52-.01.21-.13,1.06.2,1.05,2.97-5.04,10.48-6.71,15.65-4.34,3.59,1.64,6.62,5.8,5.83,9.86,1.62-1.94,1.69-4.57.66-6.84-.15-.32-1.17-1.76-1.04-1.9,1.4.74,3.55,3.53,3.8,5.04ZM63.08,18.46c.38.36,2.15-1.96,2.36-2.3,3.63-5.95-1.98-11.22-7.49-12.72.56.6,1.41.94,2.07,1.44,4.25,3.2,6.96,8.97,3.06,13.58ZM46.92,17.13c-.54-2.89-3-5.81-6.08-5.89l1.77.98,2.79,2.54,1.52,2.37ZM41.79,16.56c-.84-2.6-3.79-4.38-6.46-4.37l3.48,1.74,2.98,2.63ZM25.26,14.28c-2.53.66-4.76,2.77-5.11,5.43-.17,1.31.13,2.86-.02,4.17-.11.98-.81,2.06-.94,3.06-.26,2.11.25,3.12.54,4.95.25,1.54.2,3.11.45,4.68s.74,3.63,1.37,5.09c.59-2.19.53-4.53,1.29-6.7.32-.92.94-1.71,1.28-2.62l-.56.48-2.28,4.08c-.82-3.55-.54-6.8,1.89-9.61l2.09-1.99c-1.82.52-3.67,1.35-4.65,3.04-.44-1.88.59-3.72,1.65-5.2,1.79-2.5,4.68-4.24,7.76-4.5l-1.8-.19c-1.71.19-3.25.47-4.76,1.32-.8.45-1.37,1.17-2.18,1.53,0-3.02,2.05-5.03,3.99-7.03ZM66.5,19.03c2.49-.19,4.36-1.83,4.56-4.37l-2.09,2.76-2.47,1.61ZM77.9,22.84c-.29-2.64-2.79-4.36-5.32-4.56l3.04,1.8,2.28,2.76ZM46.92,33.86v2.76c0,1,1.2,2.74,2.28,2.95l-.57-2.09c.65.56,1.69.45,2.51.33,2.72-.38,7.37-3.04,9.89-2.57.72.14,2.11.99,2.75,1.43.2.14,1.88,1.28,1.57,1.56-1.07-.17-2.05-.66-3.14-.76-.2-.02-2.25-.11-1.61.38.64-.03,1.25.13,1.84.34,2,.72,3.36,2.2,5.67,2.12l1.8,1.24c-1.83-3.75-2.87-7.54-3.8-11.6-.02-.11-.06-.31.09-.28l2.18,2.66c-.51-5.71-3.41-10.16-9.08-11.73-4.07-1.13-6.9-.07-10.78-.25s-7.96-1.4-11.88-1.33l1.52,1.14c-6.01-.41-8.91,4.95-9.98,10.07-.27,1.31-.27,2.74-.55,4.01-.13.57-1.41,3.39-1.24,3.6,2.26-1.82,3.37-2.89,6.42-2.15,2.18.53,5.45,2.23,7.45,2.45.68.07,1.09-.21,1.71-.3l-.38,1.71c.58.41,1.21-1.29,1.39-1.74l.51-2.44c.63,1.71.66,3.39-.38,4.94,1.67,0,3.33-.13,4.94.38-.24-.75-1.18-.88-1.71-1.62-.72-.99-.35-3.21.05-4.32.09-.24.25-.86.53-.9ZM76.95,30.25c-.82-4.38-5.07-7.03-9.12-7.98,2.79,2.04,5.84,3.57,7.98,6.37.4.53.63,1.21,1.14,1.61ZM76,35c-.37-2.6-2.02-4.76-4.09-6.27-.19-.14-.87-.72-1.04-.58l3.31,3.82,1.82,3.02ZM74.29,39c-.53-2.4-1.68-4.72-3.42-6.46.3.92.79,1.81,1.23,2.67.65,1.25,1.38,2.68,2.19,3.8ZM40.65,45.65c1.44-6.66-6.4-7.92-11.21-6.46-.04.36.4.15.61.13,1.69-.17,2.42-.37,4.21-.11,2.25.33,4.54,1.15,5.67,3.27l.72,3.17ZM65.36,46.03c2.18-7.62-7.6-8.77-12.54-6.37.75.06,1.47-.35,2.2-.46,3.59-.53,9.36.07,10.1,4.49l.23,2.33ZM25.83,40.71h-2.66c-.3,1.19.69,1.19,1.6,1.5l1.06-1.5ZM70.11,55.73v-11.5c0-.17-.71-.5-.85-.67-.75-.82-.7-1.49-2.16-.93.17,6.47-2.92,12.51-10.19,12.14-6.59-.34-9.41-6.26-9.82-12.13-3.85-1.34-3.82.2-4.31,3.33-.41,2.67-1.04,6.28-1.17,8.91-.07,1.44-.08,3.33,1.26,4.25,2.52,1.72,4.62-1.82,6.4-.74.17.1.23.42.41.58,1.18,1.06,1.76-1.31,1.49-2.43-.14-.58-.56-1.02-.72-1.56,2.19,1.18,2.8,4.21.29,5.43-1.43.7-1.75-.38-3.11-.06-.21.05-1.67.97-1.75,1.1-.28.46.32,2.19-.19,3.42-.23.55-.6,1.02-.66.1-.05-.83.14-1.86-.47-2.55-1.98.72-2.59,2.36-4.84,1.21-.45-.23-3.55-2.48-3.71-2.75-.53-.88.41-3,.81-3.92.29-.67,2.38-4.29,2.12-4.62-2.9,2.48-7.6,3.19-10.89,1.11-2.78-1.76-3.86-5.41-4.12-8.52l-.39,1.8c1.54,12.87-.81,24.91,10.08,34.04.15.13.38.5.57.19-2.75-3.5-5.72-6.75-6.89-11.17-.56-2.11-.79-4.38-1.07-6.54-.48-3.74-.79-7.54-1.07-11.29.23.44,1.29,1.31,1.39,1.65.24.82.1,2.54.39,3.79.56,2.32,1.91,4.14,2.55,6.19.81,2.58.63,5.63,1.33,8.18.59,2.14,2,2.83,3.06,4.54,1.46,2.36,1.38,4.71,4.04,6.41,4.49,2.88,12.36,2.18,16.91-.31,8.08-4.42,13.62-11.03,14.89-20.38.85.76-.14,3.31,1.43,3.61,2.85.55,3.47-2.52,4.49-4.24,1.47-2.45,3.71-4.84,3.96-7.82.18-2.02,0-6.11-2.94-5.99-3.67.16-3.88,6.71-6.57,8.16ZM21.84,49.45c.01-3.26-3.64-3.01-4.14-.05-.71,4.27,1.5,6.7,3.03,10.19.72,1.64.86,4.17,2.82,4.69-.54-1.39-.23-2.84-.43-4.23-.14-.97-.73-1.7-1-2.61-.38-1.29-.68-2.65-.86-3.99l-.56,2,.09,2.37c-1.2-2.11-2.82-6-1.9-8.37.86-2.23,2.5.29,2.95,0ZM39.51,55.54c-.41-.44-2.22,2.79-.82,3.19.32.09.68.03,1.01.04-.57-1.03-.41-2.13-.19-3.23ZM84.17,78.73h2.76c.18,0,.85.51,1.24.38.05.05-.1.25-.19.29-.39.19-2.04.19-2.82.42-.18.05-.58,0-.42.34.34.72,2.57.61,3.23.76-1.2.83-2.62.71-3.97.49-.43.29-.37,7.42.6,8.3l2.61,1c-.82.32-1.67.12-2.51.24-.92.13-1.51.75-2.42.81-.6.04-1.27-.21-1.91-.1.1-.32.5-.47.65-.77.7-1.36.36-10.56.48-12.83.16-3.12,1.17-7.19.75-10.24-.28-2.05-2.35-2.77-3.72-1.19-.84.96-2.3,6.55-1.77,7.55.63-.16,1.46.09,2.09.28.38.11,1.13.31,1.33.67-.81.15-3,.04-3.51.57-.85.89-.75,4.54-1.22,5.79l.41.26c1.3-.33,2.65-.14,3.94.04l-2.85.66-.57.47,3.42.48c-.91.7-2.05.69-3.13.67-.43-.01-1.2-.49-1.4.13l-.41,7.86,4.18-.57c-1.04,1.22-4.01,1.32-4.51,2.99-.41,1.36-.41,3.66-.68,5.22-.29,1.66-.62,3.35-1.27,4.91l2.85-.95-2.28,2.57c.52.35,1.23.3,1.81.47.28.08.33-.1.28.38-5.21,1.98-5.77-2.95-7.41-6.46-.84.97-1.41,1.94-2.85,2.09,3.46-2.94.97-7.68-2-9.88-2.08-1.54-6.04-1.55-4.37,1.71.95,1.86,2.42,3.34,3.42,5.51,1.13,2.46,1.76,3.69,3.1,6.02,1.58,2.75,1.46,6.29,4.12,8.24l1.24-2.09c-.85,2.91.55,4.99,2.2,7.21,1.94,2.62,4.84,5.11,8.02,6.04,2.48.72,3.82.47,5.55-1.47l-.76,2.09c.44,0,.68-.4,1.13-.49.99-.21,2.54,1.03,3.57,1.4,7.3,2.61,10.31-3.56,11.89-9.49,1.01-3.77,2.64-14.59,1.09-17.94-.26-.56-.84-1.17-1.34-1.51l1.33.1c.03-2.06-.04-4.13,0-6.19.07-4.23.33-8.66-.42-12.87-.2-1.1-.53-3.19-1.59-3.73-3.08-1.58-2.67,4.21-2.55,5.78.2,2.56,1.18,1.91,3.24,2.65l-2.96.46-.28,4.83,3.24,1.36-3.23-.1v4.28c0,.42.96,1.59,1.33,1.9.04.5-.09.18-.33.15-2.46-.33-2.84-2.03-4.79-3.19l1.02-.12.29-.28c.29-3.8.94-7.56.79-11.39s-.15-7.91-.38-11.79c-.1-1.66-.24-4.58-2.24-4.99-3.72-.77-2.39,6.26-2.3,8.29l3.39.89c-1.05.51-2.47.45-3.61.48v7.42l3.42.57-2.28.66c.61.31,1.36.28,2.01.47.28.08.33-.1.28.38-1.19.33-2.29.19-3.49-.01-.37.08-.41,3-.4,3.53.04,1.36.15,2.55.95,3.69l1.98,1.34c-.82.21-1.75-.28-2.46-.29-.28,0-.4.28-.78.22-.45-.07-2.01-1.13-2.09-1.55.59-6.2.66-12.41.56-18.64.04-2.57.57-5.86.39-8.36-.12-1.65-.62-3.24-2.57-3.14-3.15.17-2.69,6.17-2.67,8.38l3.52,1.52-3.59.21c-.24.99-.82,7.51-.4,7.77ZM32.48,105.73c1.2.71,2.24,1.65,3.48,2.32,6.45,3.45,13.55,2.38,19.57-1.4.67-.42,3.66-2.5,3.74-3.11s-.65-3.51-.86-4.26c-.49-1.67-1.79-3.81-2.1-5.32-.38-1.85,1.33-3.57,3.07-3.8,3.19-.42,5.57,1.88,7.4,4.16.47,0,1.78-5.23,1.81-5.98.06-1.4-1.06-3.69-1.16-5.7-.15-3.26.49-6.71.39-9.99l-4.46,5.9c-4.38,4.42-9.55,8.69-15.17,11.44-.75.37-4.02,1.5-4.31,1.77-.74.71-.29,2.05.37,2.67.88.83,1.93.66,3.05.66.09.33-.14.38-.28.57-1.14,1.48-4.89,4.34-6.8,3.95s-2.73-4.23-5.08-4.14c-.02,4.13,1.62,8.26,2.85,12.17-1.91-.49-3.78-1.18-5.42-2.28l-.09.37ZM28.11,94.51c-.09-1.97,1.39-3.49,1.85-5.28s.68-6.59.42-8.3c-.12-.78-.62-1.2-1.22-1.63l-.49,9.02c-.91,2.05-1.54,3.35-.88,5.66.06.2.04.58.32.53ZM72.13,88.69c-.2-.23-.81-.56-1.07-.83,0,1.66-.47,3.57-1.05,5.13-.36.96-1.79,3.14-1.9,3.79-.06.35.84,2.92,1.14,3.06,1.48-2.56,3.21-5.25,3.49-8.29.1-1.11.15-1.98-.61-2.86ZM24.88,89c-5.27,1.73-3.33,8.92-1.55,12.68,6.42,13.55,23.05,17.17,35.36,9.08.52-.34,2.59-1.76,2.78-2.18.22-.49-.8-2.19-.96-2.84-8.46,7.84-21.14,9.67-30.21,1.71-4.58-4.02-9.86-12.67-5.42-18.44ZM19.56,92.62c-.3-.07-.45.08-.67.18-3.62,1.63-8.58,4.36-12,6.44-1.56.95-3.1,2.02-4.43,3.26,1.21-.38,2.4-.95,3.55-1.48,3.28-1.51,6.72-3.01,9.88-4.76,1.5-.83,3.77-1.69,3.67-3.64ZM80.37,128.36c-1.61-.24-3.26-1.07-4.62-1.94-3.37-2.17-4.74-5.31-6.89-8.51-1.01-1.5-2.2-2.52-2.94-4.29-1.06-2.55-1.15-5.64-3.22-7.7l2.43,8.87c3.92,5.23,7.01,13.76,14.71,13.82.25,0,.42.17.52-.25ZM99.95,130.36c.15-.58,0-2.46,0-3.23,0-.03-.3-.34-.38-.29-2.33,3.77-7.3,3.87-11.22,2.85,2.06,1.62,5.11,1.76,7.6,1.33-.29.43-.99.65-1.23,1.15-.14.29-.07.64-.21.93-.27.54-.78,1.08-.84,1.72.4.4,5.99-3.39,6.27-4.47Z"/>
  <path class="cls-1" d="M98.62,94.61v-4.28l3.23.1"/>
  <path d="M87.35,105.7l-5.83-2.43c-.22.3,1.25,2,1.49,2.41"/>
  <path d="M100.71,105.73c-1.84-.24-3.69-.28-5.52-.66-3.66-.76-7.46-2.83-9.87-5.72"/>
  <path d="M34.95,70.37l1.05-2.09.71.35c1.5-.46,4.44-2.5,5.92-2.25.39.07.72.45,1.11.6,2.1.81,2.3-.61,3.84-.62,2.12-.01,4.69,2.27,6.33,2.46.8.09.93-.83,1.6.47.19.38.64,1.74-.13,1.27-1.65-1.01-5.25-1.85-7.22-1.91-1.22-.04-2.1.4-3.24.4-.91,0-1.64-.33-2.47-.39-2.45-.17-5.17,1.07-7.5,1.71Z"/>
  <path d="M49.96,71.7c.41.5-1.78,1.33-2.03,1.48-.21.12-.33-.02-.24.42,1.24.08,2.08,1.12,2.66,2.09-3.37-1.01-6.74-1.4-10.07,0-.28-.68,1.52-2.27,1.33-2.47-1.01-.07-1.96-.85-2.09-1.9,2.25.64,4.62.31,6.94.37,1.1.03,2.39.52,3.51,0Z"/>
  <path d="M73.65,53.08c.62-.11,1.69,2.76,1.77,3.33.2,1.49.04,1.99-1.06,2.9-.51.42-2.54,1.94-2.73.69-.14-.88.89-1.69,1.14-2.48s-.39-4.22.88-4.44Z"/>
  <path d="M77.14,53.35c-.13-.92-.7-2.11-1.79-2-.48.05-.67.46-1.06.47,4.83-6.78,5.82,1.97,2.85,5.33-.48.24,0-.53,0-.57,0-.96.13-2.34,0-3.23Z"/>
  <path d="M31.81,69.81c-.3-1.41.15-3.04,1.24-4"/>
</svg>