<?xml version="1.0" encoding="UTF-8"?>
<svg id="Calque_1" data-name="Calque 1" xmlns="http://www.w3.org/2000/svg" viewBox="0 0 105.16 133.22">
  <path d="M71.78,110.57c.65.14,1.57,1.83,2.3,2.15l-.07.22c-1.13.65-1.73,1.98-1.86,3.25-.54-.06-1.32.12-1.82-.02-.36-.11-1.03-1.1-1.44-1.37-.95-.62-3.58-.38-4.81-.37-.83,0-1.4-.27-2.33.17-1.25.6-1.33,2.38-.41,3.31,1.73,1.74,9.34,2.5,11.78,2.29.55-.05,1.99-.58,2.2-.56.39.03,3.11,1.29,3.95,1.52,3.84,1.05,5.41.56,9.13.09.57-.07,2.48-.27,2.92-.14.1.03.3.17.18.28-.14.42-1.57,1.54-1.35,1.92,1.27,1.08,2.84,1.94,4.09,3.03,1.06.93,1.85,2.11,2.95,2.98-1.6,1.95-3.99,3.22-6.42,3.89-.8-1.03-1.5-2.15-2.32-3.16-.75-.93-1.93-2.45-3.01-2.92-2.53-1.11-5.68.53-8.14,1.25-10.83,3.16-21.33,3.72-32.44,1.54-18.64-3.65-36.12-16.17-44.86-33.07l19.21-9.97c1.53-1.19,2.86-2.31,4.54-3.31.48-.28,2.33-1.04,2.44-1.41l.26-8.05c-2.13-3.05-3.33-6.52-3.71-10.23-3.03-.7-3.16-3.28-4.16-5.62-1.59-3.75-5.05-8.94-2.27-13.09.77-1.15,2.03-1.28,3.2-1.79-.82-3.38-1.54-6.78-2.04-10.23-.07-.5.05-1.08-.02-1.61-.2-1.7-.87-2.77-.72-4.75.1-1.43.86-2.7,1.02-3.87.18-1.29-.23-2.63.03-4.12.76-4.43,4.21-6.14,8.07-7.49C28,3.95,35.77.56,42.89.05c3.66-.26,6.76.46,10.07,1.93.14-1.05,2.09-.55,2.89-.37,4.8,1.07,11.11,5.82,11.11,11.18.21.03.21-.26.25-.41.22-.88.2-1.8.19-2.7,1.95,1.35,2.88,3.58,2.88,5.93,2.38.64,4.77,2.07,5.89,4.33.79,1.6.8,3.39.86,5.14-.22.25-1-.87-1.33-.52.48.95.78,1.99.96,3.04.5,2.87-.45,9.28-1.01,12.33-.26,1.41-.78,2.75-.98,4.17.54.36,1.14.42,1.69.83,2.36,1.74,2.25,5.85,1.6,8.41-.59,2.34-2.08,4.05-3.27,6.06-1.71,2.9-2.54,6.42-6.99,5.38-.12.91-.35,1.82-.44,2.74-.35,3.48-.7,8.58-.45,12,.07,1.03.12,1.4.91,2.06,1.3,1.08,2.55,2.19,3.84,3.27,1.37,1.15,3.18,2.08,4.89,2.59.25-4.21-1.84-7.48-1.46-11.76.32-3.63,3.24-10.89,8.02-8.95,2.72,1.11,1.53,3.58,1.44,5.81-.11,2.79,1.8,9.35,3.04,11.94.97,2.02,2.38,3.88,3.22,5.96,1.88,4.68,2.92,9.72,5.84,14.02,1.57,2.31,4.04,4.13,5.99,6.16.89.92,1.71,1.96,2.64,2.85l-.65,2.41c-2.49-3.24-5.96-5.83-8.59-8.88-4.04-4.69-5.01-11.29-7.45-16.69-1.24-2.75-3.07-4.94-3.98-8.02-.8-2.67-1.95-6.58-1.83-9.3.04-.8.62-3.84.16-4.29-.76-.75-2.83-.21-3.3.71-.48,2.92-1.83,6.71-.78,9.59.18.48,1.04,1.69,1.07,1.87.05.34-.15,1.34-.11,1.9.11,1.46.54,2.9.59,4.37,1.1-.35,2.17-.05,3.26.15l-2.37.96c1.43.82,3.1,1.4,4.15,2.74-2.29-.78-4.65-1.75-7.11-1.56.23.52,1.03.96.96,1.56-2.45-1.62-4.93-.84-7.63-.74l2.96-1.18c-3.3.14-6.87.06-10.13.61-1.7.29-3.73.87-4.75,2.36-1.13,1.65-.41,4.05,1.66,4.4,1.53.26,6.84-.26,8.29-.83,1.36-.53,1.77-1.5,3.46-1.15.84.18,1.59.83,1.91,1.63-1.79,1.15-3.61,2.22-5.7,2.75-.26-.18.06-.31.18-.42.16-.15,1.14-.82.94-1.06-2.92.54-6.02.36-8.94.91-1.05.2-2.19.61-2.91,1.43-1.27,1.46-.9,4.31,1.04,4.99,1.35.47,6.44.13,8.03-.11,1.13-.17,2.12-.88,3.22-1.15l-.59-1.48h2.59c.9,0,1.52,1.12,2.07,1.63.45.42,1.06.67,1.41,1.18-.78-.02-1.53-.07-2.22.38-.4.27-.6.74-1.11.97-.77.34-3.57,1.03-4.47,1.17-.36.05-.19-.05-.06-.21.26-.34.68-.57.89-.96l-8.33.48c-3.63.46-3.23,5.35.15,6,1.29.25,6.33.46,7.48.15.31-.08,1.25-.57,1.37-.85l-.37-1.34c.63.09,1.57-.13,2.15,0ZM43.04,4.64c-1.19-.13-2.57.09-3.78,0l1.24-.46c5.46-1.42,13.24.25,15.57,5.95.86,2.1.76,3.18.29,5.32-.03.15-.2.48.08.45,3.1-7.45-2.67-13.19-9.85-14.07-3.93-.48-9.88.82-13.3,2.84-2.91,1.72-5.52,4.53-5.43,8.12,3.08-4.15,8.34-5.96,13.39-4.73,3.5.85,6.47,3.62,7.39,7.13.29,1.12.27,1.95.18,3.08,1.81-3.01,1.35-6.07-.81-8.74.2-.18,1.74,1.34,1.93,1.55,1.41,1.59,2.57,4,2.07,6.15l.82-1.92c1.27-5.4-4.93-10.16-9.78-10.67ZM60.89,17.83c6.65-4.9,1.95-12.77-4.74-14.22l2.29,1.63c3.07,2.48,5.36,7.03,3.51,10.91-.13.27-1.16,1.56-1.06,1.68ZM43.21,12.7c-1-1.02-2.52-1.76-3.95-1.83l1.62.83c1.79,1.17,3.46,2.72,4.16,4.8.28.03.12-.3.08-.45-.25-1.07-1.14-2.57-1.91-3.35ZM40.29,16.05c-.75-2.41-3.6-4.25-6.07-4.15l3.75,1.95,2.32,2.2ZM29.04,17.83h-2.15c-1.21,0-3.62.9-4.65,1.57-.62.4-.99.98-1.64,1.25-.13-2.77,1.62-4.86,3.6-6.54.13-.11.48-.29.03-.27-2.69.96-4.59,2.9-4.82,5.84-.08,1.05.25,2.58.15,3.4-.06.53-.69,1.64-.84,2.43-.48,2.46.03,3.13.39,5.3.2,1.22.15,2.65.35,3.94.27,1.78.77,3.57,1.22,5.3.73-2.13.67-4.43,1.44-6.56.24-.66.62-1.23.85-1.89-.7.65-1.33,1.61-1.76,2.46-.19.38-.25.87-.43,1.2-.09.17,0,.25-.33.19-1.05-4.43.23-8.25,3.85-10.96-1.17.29-2.3.83-3.26,1.55l-1.18,1.26c-.42-3.76,3.05-7.36,6.37-8.66l2.81-.82ZM64.15,18.27c2.15-.02,4.31-1.69,4.15-4l-1.24,2.02-1.14,1.01-1.77.97ZM74.96,21.83c-.41-2.64-3.15-4.1-5.63-4.29l2.06.83c1.02.59,1.9,1.33,2.68,2.21l.89,1.26ZM41.78,38.87h3.19c.15,0,1.07.34,1.11.3l-1-2.19-.19-2.04.3-1.25c.24,1.36.84,2.63,1.71,3.7.57-.38.88-.92,1.51-1.31,2.69-1.64,10.99-1.66,13.46.56.38.34,1.38,1.77,1.55,1.86.39.19,1.62.08,2.23.29s1,.94,1.62,1.12c-.66-1.79-1.62-3.47-2.18-5.3-.48-1.56-1.15-4.16-1.37-5.74-.01-.09-.04-.24.07-.22l2.15,2.52c-.72-4.55-2.17-8.18-6.49-10.33-3.94-1.96-6.36-1.37-10.47-1.22s-8.29-.92-12.44-1.2l-1.27.15c.57.05,1.24.47,1.63.89-7.12-.31-9.19,6.5-10.05,12.24-.17,1.13-.11,2.6-.35,3.65-.05.23-.94,1.51-.86,1.58,1.05-.5,1.97-1.1,3.11-1.41,2.5-.68,7.99-.7,10.27.55.59.33.92.84,1.49,1.15.61-.38.87-1.02,1.24-1.57.09-.13-.02-.27.33-.19.09,1.2.28,2.28-.3,3.41ZM73.92,28.79c-.82-4.03-4.87-6.36-8.59-7.26l5.4,3.71c1.23,1.05,2.21,2.27,3.19,3.55ZM73.18,33.68c-.38-2.16-1.6-4.01-3.26-5.41-.16-.14-1.39-1.05-1.48-.96l3.23,3.8,1.51,2.56ZM71.4,37.38c-.4-2.31-1.73-4.49-3.26-6.22l3.26,6.22ZM39.26,43.75v-2.44c0-.07-.5-1.18-.59-1.34-1.26-2.13-5.18-2.87-7.47-2.72l-2.02.43h3.63c.37,0,2.39.56,2.82.74,1.42.59,2.76,1.83,3.19,3.33l.44,2.01ZM63.11,43.68c.09-.78,0-1.84,0-2.67,0-.06-.44-.95-.53-1.1-1.86-3.19-7.65-3.11-10.73-2.08-.04.27.3.11.45.08.22-.04.72-.23.81-.23h4c.46,0,2.41.59,2.89.82,2.2,1.04,3.07,3.36,2.82,5.7.16.06.29-.46.29-.52ZM24.89,39.16l-2.5.16c-.31.94.92,1.15,1.6,1.31l.9-1.47ZM67.55,53.68v-10.89c-.63-.46-1.5-1.92-2.28-1.85-1.03.09-.61,1.24-.68,2-.36,3.77-1.64,7.4-5.34,9.03-3.04,1.34-6.49,1.01-9.23-.84-3.24-2.19-4.28-6.31-4.68-9.99-.7-.56-2.75-.69-3.36-.07-.34.35-.68,2.85-.78,3.51-.4,2.62-1.09,6.47-1.2,9.02-.09,2.09,1.05,4.14,3.41,3.71,1.09-.2,2.73-1.7,3.84-1.19.56.26,1.04,1.79,1.84.35.32-.57.3-1.45.17-2.07-.11-.52-.52-.95-.6-1.47,1.86,1.19,2.68,3.72.47,5.07-1.51.92-1.85-.14-3.25.15-.39.08-1.55.81-1.58,1.21-.06,1.1.89,2.65-.53,3.64-.33.06-.21-.15-.22-.37-.06-.86.12-2.78-1.14-2.33-1.59.55-2.08,2.12-4.24.9-.51-.7-3.3-2.14-3.55-2.68-.66-1.42,1.81-5.37,2.43-6.83.09-.2.51-1.16.42-1.28-6.37,5.11-14.25,1.08-14.37-6.96-.35-.02-.26-.05-.3.22-.16,1.26-.07,3.71,0,5.05.21,4.33.94,9.69,1.51,14.05.42,3.24.95,5.93,2.62,8.79,1.27,2.17,3.13,3.88,4.99,5.53.11.02.1-.15.07-.22-.32-.79-1.79-2.33-2.34-3.14-3.15-4.56-3.59-6.98-4.3-12.44-.49-3.79-.79-7.66-1.13-11.46l1.53,1.89c-.76,3.2,1.6,6.02,2.33,8.78s.24,5.57,1.62,8.3c.7,1.38,1.9,2.28,2.72,3.5,1.41,2.13,1.79,4.92,3.73,6.79,2.5,2.4,7.78,2.4,11.03,2.15,5.04-.4,12.95-6.33,15.75-10.47,2.19-3.24,3.46-7.05,4.25-10.86.14-.22.31-.08.35.1.36,1.39-.58,3.5,2.01,3.15,1.93-.26,2.48-2.59,3.29-3.97,1.76-3.01,3.79-4.91,3.91-8.69.08-2.61-1.28-6.06-4.34-4.05-2.39,1.56-2.28,4.86-4.1,6.72-.11.11-.61.67-.74.51ZM20.89,47.61c.5-2.88-2.82-2.87-3.6-.56-1.3,3.85,1.48,7.41,2.89,10.68.66,1.53.75,3.45,2.49,4.25-.47-1.45-.09-3.09-.46-4.5-.15-.57-.52-1.01-.69-1.53-.45-1.38-.83-2.88-.92-4.34-.41.37-.58,1.61-.59,2.15-.02.73.29,1.42.23,2.14-.6-.77-1.09-1.81-1.41-2.73-.51-1.45-1.41-4.84-.29-6.08.93-1.04,2.18.75,2.37.52ZM38.22,53.39c-.86.05-1.74,2.43-1.3,2.93l1.3.26c-.45-.95-.44-2.22,0-3.18ZM31.55,101.68c4.89,4.59,12.08,5.4,18.22,2.88,1.16-.48,5.18-2.6,5.87-3.47.33-.41.51-1.49.95-2.16.38-.58.78-.93,1.33-1.35-.47-1.01-.82-1.79-.89-2.94-.23-4.11,2.61-5.86,6.22-6.68.62-.14,2.08-.1,2.34-.62.29-.57.54-2.28.48-2.94-.07-.85-.66-1.41-.83-2.28-.62-3.24-.04-6.74.09-10,.03-.71-.03-1.44,0-2.15l-2.82,3.92c-4.06,5.07-10.77,10.21-16.64,12.99-.55.26-3.48,1.35-3.62,1.49-.35.37-.23,1.6.04,2.03.71,1.13,2.11,1.37,3.33,1.04.34.32-2.31,2.57-2.62,2.79-1.07.76-3.06,1.93-4.39,1.62-1.54-.35-2.7-4.06-4.68-3.96-.47.32.22,3.09.35,3.69.6,2.71,1.53,5.34,2.3,8-1.79-.34-3.37-1.25-5.04-1.92ZM27.11,90.87c-.06-1.78,1.27-3.25,1.71-4.89.72-2.68.37-5.74.34-8.49l-1.08-1.14c-.24,3.08.07,6.28-.62,9.3-.8,1.61-1.17,2.66-.71,4.48.07.26.06.65.37.74ZM68.15,87.31c.38-.07,1.97.19,2.04-.21-.1-1.02-.85-1.89-1.67-2.45l-.37,2.66ZM56,103.75c-1.24.62-2.31,1.52-3.55,2.15-7.19,3.68-15.88,3.36-22.29-1.71-4.31-3.41-9.4-10.78-7.3-16.48.26-.71.74-1.33,1-2.04-1.18.75-2.4,1.33-2.77,2.78-1.64,6.49,3.63,14.24,8.65,17.93,8.42,6.19,19.19,5.55,27.6-.27-.56-.72-1.12-1.46-1.34-2.37ZM18.96,89.09l-11.51,6.05c-1.78,1.07-3.56,2.16-5.09,3.58,3.46-1.6,7.02-3.06,10.42-4.76.88-.44,5.4-2.78,5.71-3.33.25-.44.15-1.09.46-1.54Z"/>
  <path d="M55.4,64.79c-.87-.3-1.9.42-2.81.66-2.09.56-3.64.24-5.7.37-1.14.07-2.71.58-3.71.59-.72,0-1.75-.38-2.52-.44-1.71-.13-3.61.16-5.31-.02-.41-.04-2.29-.49-2.61-.65-.94-.47-.24-2.03.81-1.86.34.01.24.59.59.9,1.16,1.06,4.95-.47,6.37-.46.85,0,1.69.71,2.52.76s1.89-.74,2.81-.75c2.68-.03,5.29,1.53,7.95-.05.36-.21.28-.53.78-.56.86-.05,1.08.81.82,1.5Z"/>
  <path d="M49.04,68.35c-.78,1.26-2.41,2.15-3.85,2.37.05.32,2.82,1.36,2.37,1.78-2.82-.62-5.77-.62-8.59,0-.12-.65.14-1.01.43-1.54-1.19-.92-2.29-1.72-2.8-3.2.91.08,1.72.64,2.64.84,3.16.69,6.66.33,9.81-.25Z"/>
  <path d="M70.69,51.19c.64-.37,1.3,1.21,1.48,1.65.46,1.1.93,2.46.24,3.56-.28.44-2.53,2.11-2.98,2.01-1.23-1.03.35-2.04.63-3.03.24-.83-.11-1.86.02-2.79.04-.25.46-1.31.6-1.39Z"/>
  <path d="M73.93,55.46c.39-1.37.94-6.38-1.52-5.89-.34.07-.66.51-1,.34,5.13-6.74,5.8,2.67,2.52,5.55Z"/>
  <path d="M57.33,65.53c.73-2.65-1.26-4.07-2.67-5.92,2.74.99,4.89,3.09,2.67,5.92Z"/>
  <path d="M32.59,60.65c-.83,1.31-1.7,2.28-1.78,3.92-.04.68.12,1.16.16,1.78,0,.16.09.56-.15.52-1.45-2.6-1.33-5.15,1.78-6.22Z"/>
</svg>